<?xml version="1.0" encoding="UTF-8" standalone="no"?>
<!-- Created with Inkscape (http://www.inkscape.org/) -->

<svg
   version="1.1"
   id="svg1"
   width="207.12793"
   height="93.673447"
   viewBox="0 0 207.12793 93.673446"
   sodipodi:docname="Picture1.svg"
   inkscape:version="1.4.4 (dcaf3e7, 2026-05-05)"
   xmlns:inkscape="http://www.inkscape.org/namespaces/inkscape"
   xmlns:sodipodi="http://sodipodi.sourceforge.net/DTD/sodipodi-0.dtd"
   xmlns="http://www.w3.org/2000/svg"
   xmlns:svg="http://www.w3.org/2000/svg">
  <defs
     id="defs1" />
  <sodipodi:namedview
     id="namedview1"
     pagecolor="#ffffff"
     bordercolor="#999999"
     borderopacity="1"
     inkscape:showpageshadow="2"
     inkscape:pageopacity="0"
     inkscape:pagecheckerboard="0"
     inkscape:deskcolor="#d1d1d1"
     showgrid="false"
     inkscape:zoom="2.8280405"
     inkscape:cx="102.1909"
     inkscape:cy="53.570661"
     inkscape:window-width="1920"
     inkscape:window-height="974"
     inkscape:window-x="-11"
     inkscape:window-y="-11"
     inkscape:window-maximized="1"
     inkscape:current-layer="g1" />
  <g
     inkscape:groupmode="layer"
     inkscape:label="Image"
     id="g1"
     transform="translate(-74.963692,-81.078321)">
    <g
       id="g2"
       inkscape:transform-center-y="-1.4144069"
       transform="translate(-7.0720345,-2.1216104)">
      <path
         style="fill:#a8d08d"
         d="m 250.18183,176.70119 c 0,-0.0943 0.71857,-0.97799 1.59682,-1.96364 l 1.59682,-1.79209 -4.77737,-0.0797 -4.77736,-0.0797 -11.8685,-13.37553 -11.86849,-13.37553 -0.93174,0.94611 c -0.51245,0.52036 -5.85369,6.50975 -11.86942,13.30975 l -10.9377,12.36364 -2.68153,0.15824 c -1.47484,0.087 -27.19426,0.0998 -57.15426,0.0284 l -54.472733,-0.12982 v -44.7557 -44.755689 h 56.718433 56.71844 l 12.08115,13.655299 c 6.64463,7.51041 12.19305,13.72446 12.32983,13.809 0.13678,0.0845 5.71587,-6.06035 12.39798,-13.655301 l 12.14928,-13.808998 h 15.55558 15.55558 l -0.71363,0.848101 c -0.3925,0.466456 -9.33868,10.621549 -19.88041,22.566878 -10.54172,11.94532 -19.16677,21.85033 -19.16677,22.01112 0,0.16079 5.17091,6.09724 11.49091,13.19211 l 11.49091,12.89976 9.52727,0.0228 9.52727,0.0228 v -4.8 -4.8 l -11.56363,-0.009 -11.56364,-0.009 -2.03637,-2.36018 c -1.12,-1.2981 -2.14105,-2.5377 -2.269,-2.75467 -0.19486,-0.33043 2.93446,-0.39448 19.27273,-0.39448 h 19.50537 v 18.61818 18.61818 h -19.49091 c -10.72,0 -19.49091,-0.0772 -19.49091,-0.17154 z m 27.63636,-10.88301 v -5.52727 h -7.00509 -7.00508 l 1.50249,1.67273 c 0.82637,0.92 3.02957,3.40165 4.896,5.51478 l 3.3935,3.84205 2.10909,0.0125 2.10909,0.0125 z m -124.50909,-20.8 v -14.4 H 131.05455 108.8 v 14.4 14.4 h 22.25455 22.25455 z m 39.38699,-3.14929 c 6.33715,-7.17212 11.52099,-13.12848 11.51963,-13.23637 -0.001,-0.10788 -6.62875,-7.72343 -14.72754,-16.92343 -8.09879,-9.2 -15.23138,-17.316362 -15.8502,-18.036362 l -1.12513,-1.309091 -0.002,12.436363 -0.002,12.43636 h 3.92727 3.92727 v 19.26234 c 0,16.47296 0.0587,19.20066 0.40517,18.83637 0.22285,-0.23429 5.59012,-6.29407 11.92728,-13.46618 z M 153.3091,106.90909 V 96.581819 H 131.05455 108.8 v 10.327271 10.32727 h 22.25455 22.25455 z"
         id="path6" />
      <path
         style="fill:#acadac"
         d="m 250.18183,176.72106 c 0,-0.0834 1.01454,-1.32509 2.25454,-2.75928 l 2.25455,-2.60761 11.56364,-0.004 11.56363,-0.004 v -5.52728 -5.52727 h -11.49091 -11.49091 v -2.76364 -2.76363 h 11.49091 11.49091 v -4.8 -4.8 l -11.56363,-0.009 -11.56364,-0.009 -2.03637,-2.36018 c -1.12,-1.2981 -2.14105,-2.5377 -2.269,-2.75467 -0.19486,-0.33043 2.93446,-0.39448 19.27273,-0.39448 h 19.50537 v 18.61818 18.61818 h -19.49091 c -10.72,0 -19.49091,-0.0682 -19.49091,-0.15167 z M 82.036367,128 V 83.200001 l 41.236363,0.0088 41.23637,0.0088 3.99668,4.573003 3.99668,4.573002 0.003,12.436364 0.003,12.43636 h 3.92727 3.92727 v 19.28456 19.28456 l -7.49091,8.48591 -7.49091,8.48592 -41.67272,0.0113 -41.672733,0.0114 z m 71.272733,17.01818 v -14.4 H 131.05455 108.8 v 14.4 14.4 h 22.25455 22.25455 z m 0,-38.10909 V 96.581819 H 131.05455 108.8 v 10.327271 10.32727 h 22.25455 22.25455 z"
         id="path5" />
      <path
         style="fill:#02afee"
         d="m 250.79909,176.02326 c 0.38051,-0.46721 1.41183,-1.70205 2.29183,-2.74409 l 1.6,-1.89461 11.70909,-0.0195 11.70909,-0.0196 v -5.52728 -5.52727 h -11.63636 -11.63637 v -2.76364 -2.76363 h 11.63637 11.63636 v -4.8 -4.8 h -11.60554 -11.60555 l -2.00074,-2.25455 c -1.1004,-1.24 -2.17758,-2.48363 -2.39371,-2.76363 -0.37337,-0.4837 0.5811,-0.50909 19.13356,-0.50909 h 19.52653 v 18.61818 18.61818 h -19.5282 -19.52819 z M 82.036367,128 V 83.200001 l 41.236363,0.0088 41.23637,0.0088 3.99668,4.573003 3.99668,4.573002 0.003,12.581824 0.003,12.58181 h 3.92727 3.92727 v 19.13911 19.1391 l -7.49091,8.48591 -7.49091,8.48592 -41.67272,0.0113 -41.672733,0.0114 z m 71.563643,17.16364 V 130.61818 H 131.2 108.8 v 14.54546 14.54545 h 22.4 22.40001 z m -0.0691,-38.32728 0.0763,-10.54545 H 131.20363 108.8 v 10.61999 10.61999 l 22.32728,-0.0745 22.32727,-0.0745 z"
         id="path4" />
      <path
         style="fill:#565655"
         d="M 82.036367,128 V 83.200001 l 41.236363,0.0088 41.23637,0.0088 3.99668,4.573003 3.99668,4.573002 0.003,12.581824 0.003,12.58181 h 3.92727 3.92727 v 19.13911 19.1391 l -7.49091,8.48591 -7.49091,8.48592 -41.67272,0.0113 -41.672733,0.0114 z m 71.563643,17.16364 V 130.61818 H 131.2 108.8 v 14.54546 14.54545 h 22.4 22.40001 z m -0.0691,-38.32728 0.0763,-10.54545 H 131.20363 108.8 v 10.61999 10.61999 l 22.32728,-0.0745 22.32727,-0.0745 z"
         id="path3" />
      <path
         style="fill:#3f3f3f"
         d="M 82.036367,128 V 83.200001 h 41.182423 41.18241 l 0.78122,0.937762 c 0.42967,0.515769 2.1885,2.537078 3.9085,4.491796 l 3.12727,3.554034 v 12.671837 12.67184 h 3.92727 3.92727 l -0.0132,19.27273 -0.0132,19.27273 -7.43215,8.36364 -7.43216,8.36363 H 123.6092 82.036367 Z m 71.563643,17.01818 V 130.32727 H 131.2 108.8 v 14.69091 14.69091 h 22.4 22.40001 z m 0,-38.10909 V 96.29091 H 131.2 108.8 v 10.61818 10.61818 h 22.4 22.40001 z"
         id="path2" />
    </g>
  </g>
</svg>
